REM DIRINDEX 1\6,1\2\7,1\2\8,1\2\9,1\3\10,1\3\11,1\4\12,1\4\13,1\4\14,1\5\15,1\5\16,1\5\17
REM DIRNAME cjc040,folder01,folder02,folder03,folder04,folder05,folder06,folder07,folder08,folder09,folder10,folder11,folder12,folder13,folder14,folder15,folder16
TITLE ""
FILE "P2Q_t2_0650-0667.mp3" MP3
  TRACK 01 AUDIO
    TITLE "7:cjc040_5781"
    INDEX 01 00:00:00
  TRACK 02 AUDIO
    TITLE "0:"
    INDEX 01 00:01:03
  TRACK 03 AUDIO
    TITLE "8:cjc040_5782"
    INDEX 01 00:01:54
  TRACK 04 AUDIO
    TITLE "0:"
    INDEX 01 00:04:09
  TRACK 05 AUDIO
    TITLE "9:cjc040_5783"
    INDEX 01 00:04:66
  TRACK 06 AUDIO
    TITLE "0:"
    INDEX 01 00:06:00
  TRACK 07 AUDIO
    TITLE "7:cjc040_5784"
    INDEX 01 00:07:56
  TRACK 08 AUDIO
    TITLE "0:"
    INDEX 01 00:08:70
  TRACK 09 AUDIO
    TITLE "8:cjc040_5785"
    INDEX 01 00:09:42
  TRACK 10 AUDIO
    TITLE "0:"
    INDEX 01 00:12:48
  TRACK 11 AUDIO
    TITLE "9:cjc040_5786"
    INDEX 01 00:13:30
  TRACK 12 AUDIO
    TITLE "0:"
    INDEX 01 00:14:43
  TRACK 13 AUDIO
    TITLE "7:cjc040_5787"
    INDEX 01 00:16:26
  TRACK 14 AUDIO
    TITLE "0:"
    INDEX 01 00:17:43
  TRACK 15 AUDIO
    TITLE "8:cjc040_5788"
    INDEX 01 00:18:23
  TRACK 16 AUDIO
    TITLE "0:"
    INDEX 01 00:19:40
  TRACK 17 AUDIO
    TITLE "9:cjc040_5789"
    INDEX 01 00:20:22
  TRACK 18 AUDIO
    TITLE "0:"
    INDEX 01 00:21:45
  TRACK 19 AUDIO
    TITLE "7:cjc040_5790"
    INDEX 01 00:23:28
  TRACK 20 AUDIO
    TITLE "0:"
    INDEX 01 00:24:49
  TRACK 21 AUDIO
    TITLE "8:cjc040_5791"
    INDEX 01 00:25:31
  TRACK 22 AUDIO
    TITLE "0:"
    INDEX 01 00:26:40
  TRACK 23 AUDIO
    TITLE "9:cjc040_5792"
    INDEX 01 00:27:10
  TRACK 24 AUDIO
    TITLE "0:"
    INDEX 01 00:28:31
  TRACK 25 AUDIO
    TITLE "7:cjc040_5793"
    INDEX 01 00:30:05
  TRACK 26 AUDIO
    TITLE "0:"
    INDEX 01 00:31:27
  TRACK 27 AUDIO
    TITLE "8:cjc040_5794"
    INDEX 01 00:32:01
  TRACK 28 AUDIO
    TITLE "0:"
    INDEX 01 00:33:34
  TRACK 29 AUDIO
    TITLE "9:cjc040_5795"
    INDEX 01 00:34:12
  TRACK 30 AUDIO
    TITLE "0:"
    INDEX 01 00:35:39
  TRACK 31 AUDIO
    TITLE "7:cjc040_5796"
    INDEX 01 00:37:16
  TRACK 32 AUDIO
    TITLE "0:"
    INDEX 01 00:38:16
  TRACK 33 AUDIO
    TITLE "8:cjc040_5797"
    INDEX 01 00:39:05
  TRACK 34 AUDIO
    TITLE "0:"
    INDEX 01 00:41:40
  TRACK 35 AUDIO
    TITLE "9:cjc040_5798"
    INDEX 01 00:42:18
  TRACK 36 AUDIO
    TITLE "0:"
    INDEX 01 00:43:25
  TRACK 37 AUDIO
    TITLE "7:cjc040_5799"
    INDEX 01 00:45:06
  TRACK 38 AUDIO
    TITLE "0:"
    INDEX 01 00:46:27
  TRACK 39 AUDIO
    TITLE "8:cjc040_5800"
    INDEX 01 00:47:07
  TRACK 40 AUDIO
    TITLE "0:"
    INDEX 01 00:49:51
  TRACK 41 AUDIO
    TITLE "9:cjc040_5801"
    INDEX 01 00:50:29
  TRACK 42 AUDIO
    TITLE "0:"
    INDEX 01 00:51:52
  TRACK 43 AUDIO
    TITLE "7:cjc040_5802"
    INDEX 01 00:53:33
  TRACK 44 AUDIO
    TITLE "0:"
    INDEX 01 00:54:58
  TRACK 45 AUDIO
    TITLE "8:cjc040_5803"
    INDEX 01 00:55:38
  TRACK 46 AUDIO
    TITLE "0:"
    INDEX 01 00:58:13
  TRACK 47 AUDIO
    TITLE "9:cjc040_5804"
    INDEX 01 00:58:69
  TRACK 48 AUDIO
    TITLE "0:"
    INDEX 01 01:00:21
  TRACK 49 AUDIO
    TITLE "7:cjc040_5805"
    INDEX 01 01:02:05
  TRACK 50 AUDIO
    TITLE "0:"
    INDEX 01 01:03:35
  TRACK 51 AUDIO
    TITLE "8:cjc040_5806"
    INDEX 01 01:04:15
  TRACK 52 AUDIO
    TITLE "0:"
    INDEX 01 01:06:57
  TRACK 53 AUDIO
    TITLE "9:cjc040_5807"
    INDEX 01 01:07:41
  TRACK 54 AUDIO
    TITLE "0:"
    INDEX 01 01:08:70
  TRACK 55 AUDIO
    TITLE "7:cjc040_5808"
    INDEX 01 01:10:45
  TRACK 56 AUDIO
    TITLE "0:"
    INDEX 01 01:11:58
  TRACK 57 AUDIO
    TITLE "8:cjc040_5809"
    INDEX 01 01:12:40
  TRACK 58 AUDIO
    TITLE "0:"
    INDEX 01 01:13:63
  TRACK 59 AUDIO
    TITLE "9:cjc040_5810"
    INDEX 01 01:14:33
  TRACK 60 AUDIO
    TITLE "0:"
    INDEX 01 01:15:52
  TRACK 61 AUDIO
    TITLE "7:cjc040_5811"
    INDEX 01 01:17:35
  TRACK 62 AUDIO
    TITLE "0:"
    INDEX 01 01:18:43
  TRACK 63 AUDIO
    TITLE "8:cjc040_5812"
    INDEX 01 01:19:27
  TRACK 64 AUDIO
    TITLE "0:"
    INDEX 01 01:21:67
  TRACK 65 AUDIO
    TITLE "9:cjc040_5813"
    INDEX 01 01:22:44
  TRACK 66 AUDIO
    TITLE "0:"
    INDEX 01 01:23:58
  TRACK 67 AUDIO
    TITLE "7:cjc040_5814"
    INDEX 01 01:25:43
  TRACK 68 AUDIO
    TITLE "0:"
    INDEX 01 01:26:60
  TRACK 69 AUDIO
    TITLE "8:cjc040_5815"
    INDEX 01 01:27:46
  TRACK 70 AUDIO
    TITLE "0:"
    INDEX 01 01:30:30
  TRACK 71 AUDIO
    TITLE "9:cjc040_5816"
    INDEX 01 01:31:12
  TRACK 72 AUDIO
    TITLE "0:"
    INDEX 01 01:32:33
  TRACK 73 AUDIO
    TITLE "7:cjc040_5817"
    INDEX 01 01:34:22
  TRACK 74 AUDIO
    TITLE "0:"
    INDEX 01 01:35:61
  TRACK 75 AUDIO
    TITLE "8:cjc040_5818"
    INDEX 01 01:36:43
  TRACK 76 AUDIO
    TITLE "0:"
    INDEX 01 01:37:58
  TRACK 77 AUDIO
    TITLE "9:cjc040_5819"
    INDEX 01 01:38:43
  TRACK 78 AUDIO
    TITLE "0:"
    INDEX 01 01:40:15
  TRACK 79 AUDIO
    TITLE "7:cjc040_5820"
    INDEX 01 01:42:02
  TRACK 80 AUDIO
    TITLE "0:"
    INDEX 01 01:43:21
  TRACK 81 AUDIO
    TITLE "8:cjc040_5821"
    INDEX 01 01:44:03
  TRACK 82 AUDIO
    TITLE "0:"
    INDEX 01 01:48:01
  TRACK 83 AUDIO
    TITLE "9:cjc040_5822"
    INDEX 01 01:48:54
  TRACK 84 AUDIO
    TITLE "0:"
    INDEX 01 01:50:06
  TRACK 85 AUDIO
    TITLE "7:cjc040_5823"
    INDEX 01 01:51:64
  TRACK 86 AUDIO
    TITLE "0:"
    INDEX 01 01:52:69
  TRACK 87 AUDIO
    TITLE "8:cjc040_5824"
    INDEX 01 01:53:47
  TRACK 88 AUDIO
    TITLE "0:"
    INDEX 01 01:55:71
  TRACK 89 AUDIO
    TITLE "9:cjc040_5825"
    INDEX 01 01:56:47
  TRACK 90 AUDIO
    TITLE "0:"
    INDEX 01 01:57:58
  TRACK 91 AUDIO
    TITLE "7:cjc040_5826"
    INDEX 01 01:59:44
  TRACK 92 AUDIO
    TITLE "0:"
    INDEX 01 02:00:51
  TRACK 93 AUDIO
    TITLE "8:cjc040_5827"
    INDEX 01 02:01:37
  TRACK 94 AUDIO
    TITLE "0:"
    INDEX 01 02:04:04
  TRACK 95 AUDIO
    TITLE "9:cjc040_5828"
    INDEX 01 02:04:62
  TRACK 96 AUDIO
    TITLE "0:"
    INDEX 01 02:06:01
  TRACK 97 AUDIO
    TITLE "7:cjc040_5829"
    INDEX 01 02:07:61
  TRACK 98 AUDIO
    TITLE "0:"
    INDEX 01 02:09:01
  TRACK 99 AUDIO
    TITLE "8:cjc040_5830"
    INDEX 01 02:09:58
  TRACK 100 AUDIO
    TITLE "0:"
    INDEX 01 02:13:36
  TRACK 101 AUDIO
    TITLE "9:cjc040_5831"
    INDEX 01 02:14:18
  TRACK 102 AUDIO
    TITLE "0:"
    INDEX 01 02:15:37
  TRACK 103 AUDIO
    TITLE "7:cjc040_5832"
    INDEX 01 02:17:24
  TRACK 104 AUDIO
    TITLE "0:"
    INDEX 01 02:18:43
  TRACK 105 AUDIO
    TITLE "8:cjc040_5833"
    INDEX 01 02:19:21
  TRACK 106 AUDIO
    TITLE "0:"
    INDEX 01 02:21:41
  TRACK 107 AUDIO
    TITLE "9:cjc040_5834"
    INDEX 01 02:22:19
  TRACK 108 AUDIO
    TITLE "0:"
    INDEX 01 02:23:38
